<?xml version="1.0" encoding="utf-8"?>
<!-- Generator: Adobe Illustrator 16.0.0, SVG Export Plug-In . SVG Version: 6.00 Build 0)  -->
<!DOCTYPE svg PUBLIC "-//W3C//DTD SVG 1.1//EN" "http://www.w3.org/Graphics/SVG/1.1/DTD/svg11.dtd">
<svg version="1.1" id="Layer_1" xmlns="http://www.w3.org/2000/svg" xmlns:xlink="http://www.w3.org/1999/xlink" x="0px" y="0px"
	 width="540px" height="190px" viewBox="0 0 540 190" enable-background="new 0 0 540 190" xml:space="preserve">
<title>Ottawa-Civic-Tech-Logo</title>
<rect x="384" y="181" fill="#FFCF01" width="12" height="9"/>
<rect x="348" y="181" fill="#6A0D69" width="12" height="9"/>
<rect x="360" y="181" fill="#65C298" width="12" height="9"/>
<rect x="336" y="181" fill="#E81E26" width="12" height="9"/>
<rect x="420" y="181" fill="#00954C" width="12" height="9"/>
<rect x="396" y="181" fill="#0075B2" width="12" height="9"/>
<rect x="408" y="181" fill="#F68B1F" width="12" height="9"/>
<rect x="432" y="181" fill="#EC008C" width="12" height="9"/>
<rect x="444" y="181" fill="#00BBD6" width="12" height="9"/>
<rect x="372" y="181" fill="#767769" width="12" height="9"/>
<rect y="181" fill="#65C298" width="12" height="9"/>
<rect x="12" y="181" fill="#E81E26" width="12" height="9"/>
<rect x="24" y="181" fill="#00954C" width="12" height="9"/>
<rect x="36" y="181" fill="#0075B2" width="12" height="9"/>
<rect x="48" y="181" fill="#F68B1F" width="12" height="9"/>
<rect x="72" y="181" fill="#EC008C" width="12" height="9"/>
<rect x="84" y="181" fill="#00BBD6" width="12" height="9"/>
<rect x="60" y="181" fill="#767769" width="12" height="9"/>
<rect x="456" y="181" fill="#FFCF01" width="12" height="9"/>
<rect x="468" y="181" fill="#6A0D69" width="12" height="9"/>
<rect x="480" y="181" fill="#65C298" width="12" height="9"/>
<rect x="492" y="181" fill="#E81E26" width="12" height="9"/>
<rect x="504" y="181" fill="#00954C" width="12" height="9"/>
<rect x="516" y="181" fill="#F68B1F" width="12" height="9"/>
<rect x="528" y="181" fill="#00BBD6" width="12" height="9"/>
<rect x="216" y="181" fill="#FFCF01" width="12" height="9"/>
<rect x="228" y="181" fill="#6A0D69" width="12" height="9"/>
<rect x="192" y="181" fill="#65C298" width="12" height="9"/>
<rect x="180" y="181" fill="#E81E26" width="12" height="9"/>
<rect x="252" y="181" fill="#EC008C" width="12" height="9"/>
<rect x="312" y="181" fill="#00954C" width="12" height="9"/>
<rect x="264" y="181" fill="#00BBD6" width="12" height="9"/>
<rect x="276" y="181" fill="#0075B2" width="12" height="9"/>
<rect x="324" y="181" fill="#F68B1F" width="12" height="9"/>
<rect x="288" y="181" fill="#EC008C" width="12" height="9"/>
<rect x="300" y="181" fill="#767769" width="12" height="9"/>
<rect x="156" y="181" fill="#FFCF01" width="12" height="9"/>
<rect x="108" y="181" fill="#6A0D69" width="12" height="9"/>
<rect x="144" y="181" fill="#65C298" width="12" height="9"/>
<rect x="132" y="181" fill="#E81E26" width="12" height="9"/>
<rect x="96" y="181" fill="#00954C" width="12" height="9"/>
<rect x="120" y="181" fill="#0075B2" width="12" height="9"/>
<rect x="168" y="181" fill="#F68B1F" width="12" height="9"/>
<rect x="204" y="181" fill="#00BBD6" width="12" height="9"/>
<rect x="240" y="181" fill="#767769" width="12" height="9"/>
<path fill="#FFFFFF" d="M150,54.67c3.237-1.918,5.867-4.707,7.59-8.051c1.747-3.461,2.631-7.293,2.58-11.17
	c0.052-3.851-0.834-7.657-2.58-11.09c-1.73-3.325-4.36-6.097-7.59-8c-3.516-2.046-7.533-3.071-11.6-2.96
	c-3.087-0.034-6.15,0.562-9,1.75c-2.604,1.075-4.945,2.703-6.86,4.77c-1.86,2.041-3.316,4.416-4.29,7
	c-1.034,2.738-1.556,5.643-1.54,8.57c0,2.917,0.528,5.812,1.56,8.54c0.964,2.609,2.42,5.01,4.29,7.07
	c1.917,2.068,4.257,3.703,6.86,4.789c2.846,1.207,5.91,1.813,9,1.781C142.483,57.762,146.493,56.724,150,54.67z M129.53,45.489
	c-2.232-2.846-3.397-6.384-3.29-10c-0.105-3.588,1.06-7.098,3.29-9.91c0.356-0.409,0.741-0.793,1.149-1.149
	c4.927-4.292,12.399-3.777,16.691,1.149c2.218,2.817,3.376,6.325,3.27,9.91c0.108,3.613-1.048,7.149-3.27,10
	c-0.382,0.444-0.797,0.859-1.241,1.241C141.203,50.971,133.771,50.416,129.53,45.489z M191.42,55.049
	c-1.907,1.82-4.796,2.73-8.67,2.73c-3.533,0-6.227-0.938-8.08-2.811s-2.78-4.563-2.78-8.069v-24.54h-7.01v-7.94h7V2.759h9.19v11.66
	h8.59v7.94h-8.59v22.2c-0.058,1.292,0.318,2.567,1.07,3.62c0.71,0.929,1.832,1.449,3,1.39c0.818,0.002,1.629-0.149,2.39-0.45
	c0.636-0.203,1.22-0.544,1.71-1L191.42,55.049z M203.9,22.359h-7.01v-7.94h7V2.759h9.19v11.66h8.59v7.94h-8.59v22.2
	c-0.059,1.292,0.318,2.567,1.07,3.62c0.71,0.929,1.832,1.449,3,1.39c0.818,0.002,1.629-0.149,2.39-0.45
	c0.637-0.203,1.221-0.544,1.71-1l2.18,6.93c-1.907,1.82-4.797,2.73-8.67,2.73c-3.533,0-6.227-0.938-8.08-2.811
	c-1.854-1.873-2.78-4.563-2.78-8.069V22.359L203.9,22.359z M258.12,52.06v4.64h9.18v-28c0.057-2.461-0.424-4.904-1.41-7.16
	c-0.841-1.918-2.186-3.573-3.89-4.79c-1.695-1.168-3.58-2.035-5.57-2.56c-2.2-0.575-4.467-0.854-6.74-0.83
	c-6.576-0.157-12.943,2.316-17.69,6.87l3.69,6.22c3.308-3.334,7.813-5.204,12.51-5.19c2.558-0.125,5.083,0.615,7.17,2.1
	c1.8,1.359,2.817,3.517,2.72,5.77v6.24c-3.106-3.693-7.66-5.54-13.66-5.54c-1.769-0.001-3.527,0.275-5.21,0.82
	c-1.686,0.542-3.268,1.362-4.68,2.43c-1.487,1.142-2.668,2.632-3.44,4.341c-0.896,1.959-1.341,4.096-1.3,6.25
	c-0.022,2.123,0.433,4.225,1.33,6.149c0.784,1.729,1.962,3.25,3.44,4.44c1.412,1.121,3,2,4.7,2.6c1.666,0.595,3.421,0.898,5.19,0.9
	c2.65,0.029,5.278-0.476,7.73-1.48C254.465,55.346,256.494,53.902,258.12,52.06z M248.02,51.299
	c-2.336,0.098-4.633-0.629-6.49-2.049c-1.664-1.295-2.611-3.304-2.55-5.41H239c-0.082-2.123,0.85-4.156,2.51-5.48
	c1.856-1.425,4.152-2.154,6.49-2.061c2.006-0.018,3.995,0.367,5.85,1.131c1.679,0.66,3.145,1.767,4.24,3.199v6.351
	c-1.093,1.435-2.56,2.542-4.24,3.2C252.001,50.938,250.019,51.318,248.02,51.299z M314.9,56.689l-9.631-30.33l-9.608,30.359h-10
	l-13.12-42.299h9.529l8.931,30.719l10.08-30.719h8l10.12,30.74l8.93-30.73h9.53l-13.12,42.26H314.9L314.9,56.689z M370.4,52.06v4.64
	h9.18v-28c0.057-2.461-0.424-4.904-1.41-7.16c-0.842-1.918-2.186-3.573-3.891-4.79c-1.687-1.166-3.559-2.031-5.539-2.56
	c-2.2-0.575-4.467-0.854-6.74-0.83c-6.59-0.167-12.975,2.306-17.73,6.87l3.73,6.26c3.301-3.349,7.809-5.233,12.51-5.23
	c2.559-0.125,5.084,0.615,7.17,2.1c1.801,1.359,2.817,3.517,2.721,5.77v6.24c-3.106-3.693-7.659-5.54-13.659-5.54
	c-1.771-0.001-3.527,0.275-5.211,0.82c-1.685,0.542-3.269,1.362-4.681,2.43c-1.485,1.142-2.668,2.632-3.438,4.341
	c-0.896,1.959-1.341,4.096-1.302,6.25c-0.03,2.121,0.414,4.223,1.302,6.149c0.782,1.729,1.961,3.25,3.438,4.44
	c1.412,1.121,3,2,4.7,2.6c1.666,0.595,3.421,0.898,5.19,0.9c2.648,0.029,5.277-0.476,7.73-1.48
	C366.744,55.346,368.773,53.902,370.4,52.06z M353.84,49.25c-1.664-1.295-2.611-3.304-2.55-5.41h0.01
	c-0.071-2.125,0.872-4.154,2.54-5.471c1.855-1.424,4.152-2.152,6.49-2.06c1.998-0.019,3.98,0.362,5.83,1.12
	c1.679,0.66,3.145,1.767,4.24,3.199v6.351c-1.094,1.435-2.562,2.542-4.24,3.2c-1.85,0.758-3.832,1.139-5.83,1.119
	C357.994,51.396,355.697,50.67,353.84,49.25z M329.34,80.439c-3.992-0.049-7.922,1.01-11.35,3.061
	c-3.332,1.976-6.053,4.834-7.86,8.26c-1.868,3.523-2.823,7.461-2.78,11.449c-0.006,6.786,2.131,12.297,6.41,16.529
	c4.28,4.232,9.707,6.352,16.28,6.352c3.342,0.024,6.663-0.521,9.819-1.621c2.891-0.985,5.535-2.577,7.761-4.67l-4.271-6.209
	c-1.604,1.567-3.533,2.767-5.649,3.51c-2.142,0.814-4.409,1.242-6.7,1.26c-3.521,0.148-6.965-1.077-9.6-3.42
	c-2.43-2.235-3.944-5.293-4.25-8.58h33.529v-2.26c0-6.895-1.949-12.561-5.851-17C340.93,82.659,335.768,80.439,329.34,80.439z
	 M317.063,99.739c0.107-1.418,0.44-2.808,0.987-4.12c0.562-1.334,1.315-2.576,2.24-3.689c1.024-1.211,2.325-2.159,3.79-2.771
	c1.665-0.694,3.456-1.034,5.26-1c1.881-0.034,3.746,0.322,5.48,1.05c1.479,0.613,2.787,1.578,3.81,2.812
	c0.905,1.116,1.624,2.373,2.13,3.72c0.482,1.282,0.76,2.633,0.82,4L317.063,99.739L317.063,99.739z M370.41,92.84
	c-2.491,2.865-3.791,6.576-3.631,10.369c-0.16,3.82,1.137,7.561,3.631,10.461c2.42,2.676,5.902,4.143,9.51,4
	c3.991,0.102,7.76-1.836,10-5.142l6.24,5.75c-3.867,5.187-9.42,7.78-16.66,7.78c-6.594,0-11.99-2.153-16.189-6.461
	c-4.201-4.307-6.304-9.771-6.311-16.391c0-6.593,2.104-12.033,6.311-16.32c4.207-4.285,9.604-6.433,16.189-6.438
	c7.268,0,12.82,2.577,16.66,7.729l-6.24,5.761c-2.227-3.315-6.009-5.245-10-5.101C376.314,88.705,372.835,90.17,370.41,92.84z
	 M441.9,95.6v30.76h-9.45v-27.33c0-3.193-0.754-5.457-2.261-6.79s-3.696-2-6.569-2c-2.229-0.008-4.42,0.575-6.352,1.69
	c-1.872,1.037-3.51,2.449-4.81,4.15v30.279H403V51.08h9.45v37.789c1.825-2.09,4.053-3.789,6.55-5c2.754-1.385,5.798-2.095,8.88-2.07
	c4.667,0,8.167,1.174,10.5,3.521S441.887,91.092,441.9,95.6z M99.92,108.01l9,4.59c-5.713,8.973-13.757,13.46-24.13,13.46
	c-4.237,0.028-8.441-0.745-12.39-2.28c-3.71-1.432-7.107-3.57-10-6.3c-2.882-2.771-5.153-6.111-6.67-9.81
	c-3.252-8.109-3.252-17.162,0-25.271c1.507-3.716,3.775-7.075,6.66-9.859c2.893-2.729,6.29-4.869,10-6.301
	c3.949-1.533,8.153-2.309,12.39-2.279c10.46,0,18.503,4.486,24.13,13.459l-9,4.59c-1.527-2.621-3.708-4.803-6.33-6.33
	c-2.647-1.612-5.69-2.461-8.79-2.449c-5.577-0.15-10.955,2.079-14.79,6.13c-3.927,4.106-5.89,9.319-5.89,15.642
	c0,6.318,1.963,11.545,5.89,15.68c3.837,4.063,9.223,6.301,14.81,6.15c3.104,0,6.149-0.854,8.8-2.472
	C96.233,112.832,98.41,110.643,99.92,108.01z M118.21,81.549h9.45v43.461h-9.45V81.549z M169.59,81.549h10.15L162,125.01h-10.2
	l-17.67-43.461h10.06l12.7,32.561L169.59,81.549z M187.14,81.549h9.45v43.461h-9.45V81.549z M216.79,92.83
	c-2.491,2.865-3.79,6.576-3.63,10.369c-0.161,3.821,1.136,7.561,3.63,10.46c2.42,2.679,5.904,4.144,9.51,4
	c3.991,0.101,7.759-1.837,10-5.14l6.24,5.76c-3.867,5.188-9.42,7.78-16.66,7.78c-6.593,0-11.99-2.153-16.19-6.46
	c-4.2-4.307-6.303-9.771-6.31-16.391c0-6.594,2.104-12.037,6.31-16.33c4.207-4.293,9.604-6.439,16.19-6.439
	c7.267,0,12.82,2.577,16.66,7.73l-6.24,5.76c-2.226-3.316-6.008-5.245-10-5.102C222.695,88.695,219.215,90.158,216.79,92.83z
	 M253.63,80.299h48.89v8.131h-18.59v56.58h-9.24V88.42h-21.06V80.299L253.63,80.299z"/>
<path fill="#FFFFFF" d="M453.65,126.359v-8.17h37.118v8.17H453.65z"/>
</svg>
